<svg width="25" height="24" viewBox="0 0 25 24" fill="none" xmlns="http://www.w3.org/2000/svg">
<path d="M19.75 4H5.75C4.95435 4 4.19129 4.31607 3.62868 4.87868C3.06607 5.44129 2.75 6.20435 2.75 7V17C2.75 17.7956 3.06607 18.5587 3.62868 19.1213C4.19129 19.6839 4.95435 20 5.75 20H19.75C20.5456 20 21.3087 19.6839 21.8713 19.1213C22.4339 18.5587 22.75 17.7956 22.75 17V7C22.75 6.20435 22.4339 5.44129 21.8713 4.87868C21.3087 4.31607 20.5456 4 19.75 4ZM10.75 16V8L16.75 12L10.75 16Z" fill="#7FC15E"/>
</svg>
