<svg width="25" height="24" viewBox="0 0 25 24" fill="none" xmlns="http://www.w3.org/2000/svg">
<path d="M16.5 3H8.5C6.64348 3 4.86301 3.77847 3.55025 5.16416C2.2375 6.54984 1.5 8.42923 1.5 10.3889C1.5 12.3485 2.2375 14.2279 3.55025 15.6136C4.86301 16.9993 6.64348 17.7778 8.5 17.7778H12.5V22L20.66 16.3106C21.5512 15.639 22.2751 14.7495 22.7697 13.7183C23.2643 12.687 23.5148 11.5446 23.5 10.3889C23.5 8.42923 22.7625 6.54984 21.4497 5.16416C20.137 3.77847 18.3565 3 16.5 3ZM8.5 11.7083C8.25277 11.7083 8.0111 11.631 7.80554 11.486C7.59998 11.341 7.43976 11.1349 7.34515 10.8938C7.25054 10.6527 7.22579 10.3874 7.27402 10.1315C7.32225 9.87553 7.4413 9.64043 7.61612 9.4559C7.79093 9.27137 8.01366 9.14571 8.25614 9.0948C8.49861 9.04389 8.74995 9.07002 8.97835 9.16988C9.20676 9.26975 9.40199 9.43886 9.53934 9.65585C9.67669 9.87283 9.75 10.1279 9.75 10.3889C9.75 10.7388 9.6183 11.0744 9.38388 11.3219C9.14946 11.5693 8.83152 11.7083 8.5 11.7083ZM12.5 11.7083C12.2528 11.7083 12.0111 11.631 11.8055 11.486C11.6 11.341 11.4398 11.1349 11.3452 10.8938C11.2505 10.6527 11.2258 10.3874 11.274 10.1315C11.3222 9.87553 11.4413 9.64043 11.6161 9.4559C11.7909 9.27137 12.0137 9.14571 12.2561 9.0948C12.4986 9.04389 12.7499 9.07002 12.9784 9.16988C13.2068 9.26975 13.402 9.43886 13.5393 9.65585C13.6767 9.87283 13.75 10.1279 13.75 10.3889C13.75 10.7388 13.6183 11.0744 13.3839 11.3219C13.1495 11.5693 12.8315 11.7083 12.5 11.7083ZM16.5 11.7083C16.2528 11.7083 16.0111 11.631 15.8055 11.486C15.6 11.341 15.4398 11.1349 15.3452 10.8938C15.2505 10.6527 15.2258 10.3874 15.274 10.1315C15.3222 9.87553 15.4413 9.64043 15.6161 9.4559C15.7909 9.27137 16.0137 9.14571 16.2561 9.0948C16.4986 9.04389 16.7499 9.07002 16.9784 9.16988C17.2068 9.26975 17.402 9.43886 17.5393 9.65585C17.6767 9.87283 17.75 10.1279 17.75 10.3889C17.75 10.7388 17.6183 11.0744 17.3839 11.3219C17.1495 11.5693 16.8315 11.7083 16.5 11.7083Z" fill="black" />
</svg>
