<svg width="25" height="24" viewBox="0 0 25 24" fill="none" xmlns="http://www.w3.org/2000/svg">
<path d="M3.25 3V18C3.25 18.7956 3.56607 19.5587 4.12868 20.1213C4.69129 20.6839 5.45435 21 6.25 21H18.25C19.0456 21 19.8087 20.6839 20.3713 20.1213C20.9339 19.5587 21.25 18.7956 21.25 18V3H3.25ZM16.25 4.75C16.4972 4.75 16.7389 4.82331 16.9445 4.96066C17.15 5.09801 17.3102 5.29324 17.4049 5.52165C17.4995 5.75005 17.5242 6.00139 17.476 6.24386C17.4277 6.48634 17.3087 6.70907 17.1339 6.88388C16.9591 7.0587 16.7363 7.17775 16.4939 7.22598C16.2514 7.27421 16.0001 7.24946 15.7716 7.15485C15.5432 7.06024 15.348 6.90002 15.2107 6.69446C15.0733 6.4889 15 6.24723 15 6C15 5.66848 15.1317 5.35054 15.3661 5.11612C15.6005 4.8817 15.9185 4.75 16.25 4.75ZM8.25 4.75C8.49723 4.75 8.7389 4.82331 8.94446 4.96066C9.15002 5.09801 9.31024 5.29324 9.40485 5.52165C9.49946 5.75005 9.52421 6.00139 9.47598 6.24386C9.42775 6.48634 9.3087 6.70907 9.13388 6.88388C8.95907 7.0587 8.73634 7.17775 8.49386 7.22598C8.25139 7.27421 8.00005 7.24946 7.77165 7.15485C7.54324 7.06024 7.34801 6.90002 7.21066 6.69446C7.07331 6.4889 7 6.24723 7 6C7 5.66848 7.1317 5.35054 7.36612 5.11612C7.60054 4.8817 7.91848 4.75 8.25 4.75ZM19.25 18C19.25 18.2652 19.1446 18.5196 18.9571 18.7071C18.7696 18.8946 18.5152 19 18.25 19H6.25C5.98478 19 5.73043 18.8946 5.54289 18.7071C5.35536 18.5196 5.25 18.2652 5.25 18V9H19.25V18ZM13.35 15C13.35 14.7348 13.2446 14.4804 13.0571 14.2929C12.8696 14.1054 12.6152 14 12.35 14H12.25C11.908 14.0114 11.5701 14.0789 11.25 14.2L10.25 14V11H14.15V12H11.25V13.15C11.591 13.0498 11.9446 12.9993 12.3 13C12.5483 12.9851 12.7971 13.0194 13.0321 13.1009C13.2671 13.1824 13.4837 13.3094 13.6695 13.4748C13.8553 13.6402 14.0067 13.8406 14.1149 14.0646C14.2231 14.2885 14.286 14.5317 14.3 14.78V15C14.3107 15.2522 14.2716 15.504 14.1849 15.7411C14.0982 15.9781 13.9656 16.1958 13.7947 16.3815C13.6238 16.5673 13.418 16.7175 13.1889 16.8237C12.9599 16.9298 12.7122 16.9897 12.46 17H12.25C11.7528 17.0329 11.2628 16.8671 10.8878 16.539C10.5128 16.2108 10.2834 15.7472 10.25 15.25C10.2395 15.167 10.2395 15.083 10.25 15H11.25C11.2319 15.1356 11.2453 15.2735 11.2891 15.4031C11.333 15.5327 11.4061 15.6504 11.5028 15.7472C11.5996 15.8439 11.7173 15.917 11.8469 15.9609C11.9765 16.0047 12.1144 16.0181 12.25 16H12.35C12.4735 16.0081 12.5974 15.9918 12.7146 15.9519C12.8317 15.9121 12.9399 15.8495 13.0328 15.7677C13.1257 15.6859 13.2015 15.5866 13.256 15.4755C13.3104 15.3643 13.3424 15.2435 13.35 15.12V15Z" fill="#E7A33E"/>
</svg>
