<svg width="24" height="24" viewBox="0 0 24 24" fill="none" xmlns="http://www.w3.org/2000/svg">
<path d="M12 1.5C9.9233 1.5 7.89323 2.11581 6.16652 3.26957C4.4398 4.42332 3.09399 6.0632 2.29927 7.98182C1.50455 9.90045 1.29661 12.0116 1.70176 14.0484C2.1069 16.0852 3.10693 17.9562 4.57538 19.4246C6.04383 20.8931 7.91476 21.8931 9.95156 22.2982C11.9884 22.7034 14.0996 22.4955 16.0182 21.7007C17.9368 20.906 19.5767 19.5602 20.7304 17.8335C21.8842 16.1068 22.5 14.0767 22.5 12C22.5 9.21523 21.3938 6.54451 19.4246 4.57538C17.4555 2.60625 14.7848 1.5 12 1.5ZM4.5 12C4.5 10.3772 5.02634 8.79822 6 7.5L6.82501 8.325C7.0385 8.53427 7.20815 8.78399 7.32405 9.05956C7.43995 9.33514 7.49976 9.63105 7.5 9.93V11.535C7.50027 11.8333 7.61897 12.1192 7.83 12.33L8.67001 13.17C8.88078 13.381 9.16674 13.4997 9.465 13.5H10.5V14.535C10.5003 14.8333 10.619 15.1192 10.83 15.33L11.67 16.17C11.881 16.3808 11.9997 16.6667 12 16.965V19.5C10.0109 19.5 8.10323 18.7098 6.6967 17.3033C5.29018 15.8968 4.5 13.9891 4.5 12ZM13.86 19.245L16.86 15.555C16.9942 15.3885 17.0782 15.1872 17.1022 14.9746C17.1261 14.7621 17.0889 14.5472 16.995 14.355L16.125 12.615C16.0208 12.4115 15.8578 12.244 15.6572 12.1344C15.4565 12.0247 15.2276 11.9779 15 12H10.5V11.715C10.5014 11.5748 10.5414 11.4377 10.6154 11.3187C10.6895 11.1996 10.7949 11.1032 10.92 11.04L11.49 10.755C11.6476 10.6735 11.8225 10.6309 12 10.6309C12.1775 10.6309 12.3524 10.6735 12.51 10.755L13.5 11.25L14.07 10.2C14.1894 9.97887 14.2513 9.73129 14.25 9.48V8.205C14.2509 7.90975 14.3635 7.62576 14.565 7.41L16.17 5.775C17.374 6.58026 18.3191 7.71694 18.891 9.04771C19.463 10.3785 19.6373 11.8464 19.393 13.2741C19.1487 14.7019 18.4962 16.0283 17.5144 17.0932C16.5325 18.1581 15.2633 18.9159 13.86 19.275V19.245Z" fill="#666666" fill-opacity="0.6"/>
</svg>
