<svg width="25" height="24" viewBox="0 0 25 24" fill="none" xmlns="http://www.w3.org/2000/svg">
<path d="M19.25 4H5.25C4.45435 4 3.69129 4.31607 3.12868 4.87868C2.56607 5.44129 2.25 6.20435 2.25 7V17C2.25 17.7956 2.56607 18.5587 3.12868 19.1213C3.69129 19.6839 4.45435 20 5.25 20H19.25C20.0456 20 20.8087 19.6839 21.3713 19.1213C21.9339 18.5587 22.25 17.7956 22.25 17V7C22.25 6.20435 21.9339 5.44129 21.3713 4.87868C20.8087 4.31607 20.0456 4 19.25 4ZM20.25 17C20.2508 17.1316 20.2255 17.2621 20.1758 17.3839C20.126 17.5057 20.0527 17.6166 19.96 17.71L16.25 14L14.25 16L8.25 10L4.25 14V7C4.25 6.73478 4.35536 6.48043 4.54289 6.29289C4.73043 6.10536 4.98478 6 5.25 6H19.25C19.5152 6 19.7696 6.10536 19.9571 6.29289C20.1446 6.48043 20.25 6.73478 20.25 7V17ZM18.25 10C18.25 10.3956 18.1327 10.7822 17.9129 11.1111C17.6932 11.44 17.3808 11.6964 17.0154 11.8478C16.6499 11.9991 16.2478 12.0387 15.8598 11.9616C15.4719 11.8844 15.1155 11.6939 14.8358 11.4142C14.5561 11.1345 14.3656 10.7781 14.2884 10.3902C14.2113 10.0022 14.2509 9.60009 14.4022 9.23463C14.5536 8.86918 14.81 8.55682 15.1389 8.33706C15.4678 8.1173 15.8544 8 16.25 8C16.7804 8 17.2891 8.21071 17.6642 8.58579C18.0393 8.96086 18.25 9.46957 18.25 10Z" fill="#70B5F9"/>
</svg>
