<svg width="16" height="18" viewBox="0 0 16 18" fill="none" xmlns="http://www.w3.org/2000/svg">
<path d="M14.56 13.995L11.3 10.3275C11.9492 9.0213 12.1565 7.49496 11.8835 6.03026C11.6106 4.56557 10.8759 3.26141 9.81495 2.35855C8.75405 1.45569 7.43863 1.0151 6.11153 1.1181C4.78443 1.22111 3.53526 1.86076 2.59462 2.91897C1.65399 3.97719 1.08541 5.38251 0.993848 6.87549C0.902287 8.36848 1.29393 9.84833 2.09647 11.0418C2.89901 12.2354 4.05826 13.0619 5.36021 13.369C6.66217 13.6761 8.01891 13.4429 9.17997 12.7125L12.44 16.38C12.5773 16.5458 12.7429 16.6788 12.9269 16.771C13.1109 16.8632 13.3095 16.9128 13.5109 16.9168C13.7123 16.9208 13.9124 16.8791 14.0992 16.7943C14.2859 16.7094 14.4556 16.5831 14.5981 16.4228C14.7405 16.2626 14.8528 16.0717 14.9282 15.8616C15.0037 15.6515 15.0407 15.4264 15.0372 15.1998C15.0336 14.9732 14.9895 14.7498 14.9075 14.5428C14.8256 14.3358 14.7073 14.1495 14.56 13.995ZM2.99997 7.31249C2.99997 6.53373 3.20525 5.77245 3.58983 5.12494C3.97442 4.47742 4.52104 3.97274 5.16058 3.67472C5.80012 3.3767 6.50386 3.29872 7.18279 3.45065C7.86172 3.60258 8.48536 3.97759 8.97485 4.52826C9.46433 5.07893 9.79767 5.78053 9.93272 6.54433C10.0678 7.30813 9.99846 8.09983 9.73355 8.81931C9.46865 9.53879 9.02004 10.1537 8.44447 10.5864C7.8689 11.0191 7.19221 11.25 6.49997 11.25C5.57172 11.25 4.68148 10.8352 4.0251 10.0967C3.36872 9.3583 2.99997 8.35678 2.99997 7.31249Z" fill="black" fill-opacity="0.9"/>
</svg>
