<svg width="24" height="24" viewBox="0 0 24 24" fill="none" xmlns="http://www.w3.org/2000/svg">
<path d="M20 20C20.3166 19.6876 20.568 19.3155 20.7396 18.9053C20.9113 18.495 20.9998 18.0547 21 17.61V6.38C21 5.48357 20.6439 4.62385 20.01 3.98998C19.3761 3.35611 18.5164 3 17.62 3H6.38C5.93695 3.00154 5.49859 3.09068 5.09013 3.26231C4.68167 3.43393 4.31119 3.68463 4 4L20 20Z" fill="#F8C77E"/>
<path d="M4 4C3.68463 4.31119 3.43393 4.68167 3.26231 5.09013C3.09068 5.49859 3.00154 5.93695 3 6.38V17.62C3 18.5164 3.35611 19.3761 3.98998 20.01C4.62385 20.6439 5.48357 21 6.38 21H17.62C18.063 20.9985 18.5014 20.9093 18.9099 20.7377C19.3183 20.5661 19.6888 20.3154 20 20L4 4Z" fill="#E7A33E"/>
</svg>
